<svg width="80" height="80" viewBox="0 0 80 80" fill="none" xmlns="http://www.w3.org/2000/svg" aria-hidden="true">
  <rect width="80" height="80" rx="10" fill="#E8F7EF"/>
  <!-- Scalloped awning -->
  <path d="M14 36L18 28L22 36L26 28L30 36L34 28L38 36L42 28L46 36L50 28L54 36L58 28L62 36L66 36V41C66 42.1 65.1 43 64 43H16C14.9 43 14 42.1 14 41V36Z" fill="#22C55E" opacity="0.85"/>
  <!-- Building -->
  <rect x="16" y="43" width="48" height="24" rx="3" fill="white" opacity="0.98"/>
  <!-- Windows -->
  <rect x="22" y="47" width="11" height="11" rx="2" fill="#C8EAD9" opacity="0.75"/>
  <rect x="47" y="47" width="11" height="11" rx="2" fill="#C8EAD9" opacity="0.75"/>
  <!-- Door -->
  <rect x="35" y="51" width="10" height="16" rx="2" fill="#E8F7EF"/>
  <circle cx="42" cy="59" r="1.3" fill="#22C55E" opacity="0.7"/>
  <!-- Ground -->
  <ellipse cx="40" cy="70" rx="28" ry="6" fill="white" opacity="0.95"/>
  <ellipse cx="40" cy="69" rx="22" ry="4" fill="#C8EAD9" opacity="0.6"/>
</svg>
